<svg id="Capa_1" enable-background="new 0 0 512 512" height="60px" viewBox="0 0 512 512" width="60px" xmlns="http://www.w3.org/2000/svg" fill="#fff"><g><path d="m507.421 84.397-88.156-74.147c-3.099-2.608-6.991-3.734-10.779-3.383h-134.986c-4.143 0-7.5 3.358-7.5 7.5s3.357 7.5 7.5 7.5h113.11l-73.163 61.652h-114.894l-73.163-61.652h113.11c4.143 0 7.5-3.358 7.5-7.5s-3.357-7.5-7.5-7.5h-134.977c-3.79-.352-7.686.773-10.787 3.382l-88.159 74.15c-2.909 2.447-4.577 6.031-4.577 9.832v22.074c0 8.422 7.756 14.168 15.396 12.616v168.527h-2.166c-4.143 0-7.5 3.358-7.5 7.5s3.357 7.5 7.5 7.5h2.166v177.749h-2.166c-4.143 0-7.5 3.358-7.5 7.5s3.357 7.5 7.5 7.5h485.542c4.143 0 7.5-3.358 7.5-7.5s-3.357-7.5-7.5-7.5h-2.167c0-7.672 0-170.333 0-177.749h2.167c4.143 0 7.5-3.358 7.5-7.5s-3.357-7.5-7.5-7.5h-2.167c0-10.276 0-73.519 0-80.126 0-4.142-3.357-7.5-7.5-7.5s-7.5 3.358-7.5 7.5v53.158h-29.676c0-11.534 0-87.449 0-97.978 0-6.884-5.6-12.484-12.483-12.484h-56.086c-6.884 0-12.483 5.6-12.483 12.484v97.978h-29.676v-154.788l68.629-57.723 71.774 60.368v63.985c0 4.142 3.357 7.5 7.5 7.5s7.5-3.358 7.5-7.5v-53.411c7.743 1.575 15.396-4.262 15.396-12.606v-22.074c0-3.803-1.669-7.387-4.579-9.834zm-447.35 405.799h-29.675v-11.968h29.676v11.968zm33.027 0h-18.027c0-9.529 0-85.408 0-95.101h18.026v95.101zm33.025 0h-18.025v-95.101h18.025zm0-110.101h-25.525-25.527v-12.329h51.052zm44.676 110.101h-29.676v-11.968h29.676zm0-26.968h-29.676v-75.633-22.345c0-6.884-5.6-12.484-12.483-12.484h-56.085c-6.884 0-12.483 5.6-12.483 12.484v22.345 75.633h-29.676v-150.78h140.403zm-140.403-165.78v-11.968h29.676v11.968zm44.675-110.101v-12.329h51.052v12.329c-6.22 0-44.837 0-51.052 0zm51.052 15v95.101h-18.025v-95.101zm-33.025 0v95.101h-18.027c0-9.529 0-85.408 0-95.101zm77.701 95.101h-29.676v-11.968h29.676zm0-26.968h-29.676c0-11.534 0-87.449 0-97.978 0-6.884-5.6-12.484-12.483-12.484h-56.085c-6.884 0-12.483 5.6-12.483 12.484v97.978h-29.676v-152.144l71.773-60.368 68.63 57.723zm155.402 219.716h-140.402v-11.968h140.402zm0-26.968h-140.402v-150.78h140.402zm0-165.78h-140.402v-11.968h140.402zm0-26.968h-140.402v-143.976c2.196.824 5.125 1.394 7.857 1.394h124.688c2.504 0 5.251-.453 7.857-1.394zm44.676 219.716h-29.676v-11.968h29.676zm33.026 0h-18.026c0-9.529 0-85.408 0-95.101h18.026zm33.026 0h-18.025v-95.101h18.025zm0-110.101h-25.525-25.526v-12.329h51.052v12.329zm44.675 110.101h-29.676v-11.968h29.676zm-29.675-204.716h29.676v11.968h-29.676zm-66.052-110.462h51.052v12.329c-6.22 0-44.837 0-51.052 0zm51.052 27.329v95.101h-18.025v-95.101zm-51.052 0h18.026v95.101h-18.026c0-9.529 0-85.409 0-95.101zm95.727 110.101v150.78h-29.676v-75.633-22.345c0-6.884-5.6-12.484-12.483-12.484h-56.085c-6.884 0-12.483 5.6-12.483 12.484v22.345 75.633h-29.676v-150.78zm-110.727-26.968v11.968h-29.676v-11.968zm126.123-173.795-77.735-65.381c-5.467-4.6-13.402-4.6-18.867-.001l-71.521 60.155c-.001.001-.002.002-.003.003-5.659 4.76-6.994 6.438-10.529 6.438h-124.689c-1.85 0-3.652-.655-5.075-1.851-8.489-7.14-68.736-57.812-76.979-64.745-1.878-1.58-4.294-2.761-6.867-3.219-4.369-.779-8.773.505-12 3.219-63.104 53.077-32.221 27.1-77.735 65.383v-16.454l87.169-73.317 88.812 74.839c1.353 1.14 3.064 1.765 4.833 1.765h120.371c1.769 0 3.48-.625 4.833-1.765l88.812-74.839 87.17 73.317z"/><path d="m284.043 160.018h-56.086c-6.883 0-12.482 5.6-12.482 12.484v71.134c0 6.883 5.6 12.483 12.482 12.483h56.086c6.884 0 12.483-5.6 12.483-12.483 0-7.52 0-62.394 0-71.134 0-6.884-5.599-12.484-12.483-12.484zm-35.543 81.101h-18.025v-38.772h18.025zm33.026 0h-18.026v-38.772h18.026zm0-53.772c-6.209 0-44.841 0-51.052 0v-12.329h51.052z"/><path d="m227.957 448.867h28.043 28.043c6.884 0 12.483-5.6 12.483-12.483v-48.789-22.345c0-6.884-5.6-12.484-12.483-12.484h-56.086c-6.883 0-12.482 5.6-12.482 12.484v22.345 48.789c0 6.883 5.599 12.483 12.482 12.483zm53.569-15h-18.026v-38.772h18.026zm-51.051-66.101h51.052v12.329h-25.527-25.525zm0 27.329h18.025v38.772h-18.025z"/></g></svg>